<svg width="58" height="54" viewBox="0 0 58 54" fill="none" xmlns="http://www.w3.org/2000/svg">
<path d="M28.62 4.59009C15.5025 4.59009 4.76999 14.6926 4.76999 27.1351C4.76999 38.3851 13.4991 47.7226 24.8994 49.4101V33.6601H18.8415V27.1351H24.8994V22.1626C24.8994 16.5151 28.453 13.4101 33.9147 13.4101C36.5143 13.4101 39.2332 13.8376 39.2332 13.8376V19.3951H36.2281C33.2707 19.3951 32.3406 21.1276 32.3406 22.9051V27.1351H38.9709L37.8976 33.6601H32.3406V49.4101C37.9607 48.5727 43.0784 45.8675 46.7697 41.7827C50.461 37.698 52.4828 32.5028 52.47 27.1351C52.47 14.6926 41.7375 4.59009 28.62 4.59009Z" fill="black"/>
</svg>
