<svg width="55" height="55" viewBox="0 0 55 55" fill="none" xmlns="http://www.w3.org/2000/svg">
<path d="M17.6333 4.58325H36.5333C43.7333 4.58325 49.5833 10.4333 49.5833 17.6333V36.5333C49.5833 39.9943 48.2084 43.3136 45.7611 45.761C43.3137 48.2083 39.9944 49.5833 36.5333 49.5833H17.6333C10.4333 49.5833 4.58334 43.7333 4.58334 36.5333V17.6333C4.58334 14.1722 5.95825 10.8529 8.4056 8.40551C10.8529 5.95816 14.1723 4.58325 17.6333 4.58325V4.58325ZM17.1833 9.08325C15.0351 9.08325 12.9748 9.93664 11.4558 11.4557C9.93673 12.9747 9.08334 15.035 9.08334 17.1833V36.9833C9.08334 41.4608 12.7058 45.0833 17.1833 45.0833H36.9833C39.1316 45.0833 41.1919 44.2299 42.7109 42.7108C44.23 41.1918 45.0833 39.1315 45.0833 36.9833V17.1833C45.0833 12.7058 41.4608 9.08325 36.9833 9.08325H17.1833ZM38.8958 12.4583C39.6418 12.4583 40.3571 12.7546 40.8846 13.282C41.412 13.8095 41.7083 14.5248 41.7083 15.2708C41.7083 16.0167 41.412 16.732 40.8846 17.2595C40.3571 17.7869 39.6418 18.0833 38.8958 18.0833C38.1499 18.0833 37.4345 17.7869 36.9071 17.2595C36.3797 16.732 36.0833 16.0167 36.0833 15.2708C36.0833 14.5248 36.3797 13.8095 36.9071 13.282C37.4345 12.7546 38.1499 12.4583 38.8958 12.4583ZM27.0833 15.8333C30.067 15.8333 32.9285 17.0185 35.0383 19.1283C37.1481 21.2381 38.3333 24.0996 38.3333 27.0833C38.3333 30.0669 37.1481 32.9284 35.0383 35.0382C32.9285 37.148 30.067 38.3333 27.0833 38.3333C24.0997 38.3333 21.2382 37.148 19.1284 35.0382C17.0186 32.9284 15.8333 30.0669 15.8333 27.0833C15.8333 24.0996 17.0186 21.2381 19.1284 19.1283C21.2382 17.0185 24.0997 15.8333 27.0833 15.8333V15.8333ZM27.0833 20.3333C25.2931 20.3333 23.5762 21.0444 22.3104 22.3103C21.0445 23.5762 20.3333 25.293 20.3333 27.0833C20.3333 28.8735 21.0445 30.5904 22.3104 31.8562C23.5762 33.1221 25.2931 33.8333 27.0833 33.8333C28.8736 33.8333 30.5904 33.1221 31.8563 31.8562C33.1222 30.5904 33.8333 28.8735 33.8333 27.0833C33.8333 25.293 33.1222 23.5762 31.8563 22.3103C30.5904 21.0444 28.8736 20.3333 27.0833 20.3333Z" fill="black"/>
</svg>
