<svg width="48" height="48" viewBox="0 0 48 48" fill="none" xmlns="http://www.w3.org/2000/svg">
<circle cx="23.5374" cy="23.6665" r="9.78935" stroke="#9D0B0B"/>
<circle cx="24.0524" cy="24.181" r="3.60127" fill="#9D0B0B"/>
<path fill-rule="evenodd" clip-rule="evenodd" d="M4.38239 23.8691C7.65308 20.0306 12.9053 15.7023 19.4937 14.395C26.238 13.0567 34.4955 14.8625 43.6057 23.8597C40.4543 27.5345 35.0058 31.6932 28.2803 32.952C21.3823 34.2431 13.0581 32.4998 4.38239 23.8691ZM3.30953 23.5918C6.63606 19.569 12.1948 14.8238 19.2991 13.4141C26.6068 11.964 35.4305 14.0657 44.9884 23.8313L44.6916 24.1218C41.4871 28.0153 35.706 32.5795 28.4642 33.9349C21.0185 35.3286 12.1165 33.3133 3 23.8913L3.30953 23.5918Z" fill="#9D0B0B"/>
</svg>
